<?xml version="1.0" standalone="no"?>
<!DOCTYPE svg PUBLIC "-//W3C//DTD SVG 20010904//EN"
 "http://www.w3.org/TR/2001/REC-SVG-20010904/DTD/svg10.dtd">
<svg version="1.0" xmlns="http://www.w3.org/2000/svg"
 width="886.000000pt" height="534.000000pt" viewBox="0 0 886.000000 534.000000"
 preserveAspectRatio="xMidYMid meet">

<g transform="translate(0.000000,534.000000) scale(0.100000,-0.100000)"
fill="#000000" stroke="none">
<path d="M4088 4679 c-156 -145 -242 -218 -250 -213 -7 4 -96 68 -196 142
-101 73 -186 132 -188 129 -4 -4 39 -532 50 -613 4 -31 -3 -37 -279 -250 -156
-121 -282 -220 -281 -221 1 -1 145 -13 321 -28 175 -14 320 -26 321 -28 1 -1
23 -119 48 -262 26 -143 50 -269 54 -279 11 -25 39 41 171 399 l96 259 270 66
c149 37 283 70 299 74 29 7 28 9 -167 204 l-197 197 85 319 c47 176 84 320 83
322 -2 1 -110 -97 -240 -217z"/>
<path d="M7168 4790 c-42 -12 -108 -63 -179 -137 -85 -87 -118 -133 -274 -383
-211 -336 -284 -459 -337 -570 -64 -133 -154 -404 -208 -630 -111 -461 -135
-554 -177 -680 -55 -169 -171 -407 -254 -524 -91 -126 -233 -273 -310 -319
-51 -30 -74 -37 -115 -37 -66 0 -114 30 -132 85 -39 114 33 540 97 574 10 6
56 0 124 -15 124 -28 156 -24 226 26 123 89 274 391 311 621 18 111 9 270 -19
342 -40 103 -131 180 -250 213 -52 15 -69 15 -116 5 -111 -25 -213 -117 -338
-306 -84 -127 -167 -304 -307 -655 -141 -353 -242 -565 -339 -712 -105 -158
-223 -254 -303 -246 -28 3 -36 10 -61 58 -41 81 -60 202 -52 330 20 332 128
596 313 773 64 61 76 66 86 41 20 -51 -3 -120 -75 -225 -60 -89 -83 -152 -69
-194 24 -71 110 -135 184 -135 70 0 229 318 267 534 6 37 9 105 7 151 -6 116
-38 180 -121 239 -189 134 -353 119 -523 -49 -122 -121 -183 -224 -369 -620
-174 -370 -243 -503 -325 -627 -69 -105 -218 -268 -245 -268 -19 0 -28 67 -16
120 25 112 103 306 246 615 138 299 187 421 183 458 -3 29 -12 37 -108 89 -58
31 -117 57 -131 57 -24 1 -45 -30 -234 -345 -238 -398 -283 -482 -424 -804
-57 -129 -118 -264 -136 -300 -72 -143 -170 -239 -272 -265 -65 -17 -73 -9
-73 79 0 265 81 475 388 1012 266 466 285 512 286 684 1 101 -2 121 -22 162
-29 58 -63 81 -119 80 -79 -1 -134 -35 -418 -257 -38 -30 -74 -55 -79 -55 -4
0 -6 10 -3 23 3 12 17 72 32 132 31 129 43 299 26 362 -19 69 -48 95 -112 100
-118 10 -233 -64 -398 -256 -57 -67 -122 -138 -146 -160 -48 -45 -123 -96
-130 -89 -6 6 48 209 80 298 15 41 78 194 140 340 173 408 208 528 209 705 1
117 0 122 -32 188 -40 81 -94 126 -188 157 -129 43 -228 24 -352 -70 -106 -80
-455 -438 -675 -693 -317 -365 -580 -863 -642 -1212 -37 -209 -10 -482 57
-578 64 -90 181 35 361 383 100 193 132 281 146 405 13 124 35 176 148 352 54
84 127 200 163 259 93 153 201 297 289 385 87 87 234 190 239 166 7 -32 -95
-395 -186 -667 -81 -239 -184 -508 -357 -935 -209 -514 -293 -700 -518 -1145
-109 -217 -212 -428 -229 -469 -86 -217 -90 -418 -11 -563 29 -54 46 -62 106
-53 60 10 101 38 135 93 165 266 244 432 442 927 98 247 222 496 321 645 64
97 112 154 215 258 124 123 154 147 154 122 0 -20 -94 -247 -177 -430 -47
-102 -121 -263 -164 -359 -140 -304 -211 -552 -189 -653 48 -227 246 -199 398
57 22 39 78 156 123 260 157 366 208 462 297 557 26 28 67 64 91 81 l44 30 -7
-59 c-4 -32 -26 -149 -50 -259 -57 -260 -66 -321 -66 -457 0 -177 32 -275 123
-374 61 -67 131 -104 209 -111 48 -5 66 -2 112 21 86 42 144 114 270 336 42
74 86 143 98 152 51 44 135 10 238 -96 30 -31 69 -61 87 -67 73 -24 184 64
331 261 189 254 321 400 360 400 14 0 24 -17 41 -73 60 -190 145 -314 243
-358 42 -19 69 -23 133 -23 97 1 156 20 247 80 66 44 213 190 279 278 27 36
40 45 65 46 45 0 109 -47 194 -145 111 -128 207 -165 340 -131 134 34 230 104
373 271 51 61 124 138 161 173 98 91 112 87 220 -53 39 -51 104 -78 186 -79
93 -1 175 39 268 133 43 42 79 71 92 71 11 0 50 -25 87 -56 110 -93 202 -121
341 -104 42 6 84 8 93 5 9 -3 30 -32 47 -63 56 -105 155 -182 234 -182 51 0
203 46 271 82 141 75 280 294 357 562 17 57 55 228 85 382 31 153 65 315 76
359 66 263 160 458 299 620 76 87 90 114 90 165 0 55 -63 177 -102 200 -24 13
-31 11 -103 -24 -283 -140 -518 -373 -796 -787 -120 -179 -292 -464 -349 -579
-62 -124 -127 -234 -151 -256 -20 -18 -21 -18 -57 1 -44 24 -50 55 -32 150 29
155 92 295 283 627 204 353 247 444 247 519 0 37 -3 41 -77 91 -90 60 -140 80
-165 67 -22 -12 -115 -149 -193 -284 -31 -55 -136 -257 -232 -450 -226 -450
-366 -699 -422 -749 -18 -16 -28 -18 -59 -10 -36 9 -37 10 -35 54 0 25 18 97
38 160 72 223 186 460 469 978 330 605 464 893 531 1142 88 332 -11 562 -217
500z m-44 -397 c-36 -178 -64 -272 -126 -428 -56 -141 -186 -393 -269 -520
-98 -151 -251 -346 -263 -335 -6 7 120 387 172 515 136 340 262 560 410 716
66 71 83 82 76 52z m-1490 -1399 c21 -55 -2 -190 -50 -290 -45 -95 -89 -134
-151 -134 l-46 0 5 68 c5 73 28 126 105 247 74 115 120 152 137 109z m2166
-431 c-29 -368 -75 -546 -189 -740 -62 -106 -66 -110 -86 -93 -14 12 -16 25
-12 71 l5 57 -54 64 c-35 40 -54 72 -54 89 0 102 105 344 238 545 67 101 86
123 118 136 22 9 40 15 42 13 2 -2 -2 -65 -8 -142z"/>
<path d="M8454 4675 c-46 -50 -178 -299 -239 -453 -20 -52 -48 -139 -62 -193
-23 -93 -24 -101 -9 -124 19 -29 112 -79 131 -71 18 7 75 86 174 241 46 72
114 173 152 226 84 117 110 174 111 239 0 73 -25 108 -103 147 -87 44 -104 42
-155 -12z"/>
<path d="M7689 4177 c-78 -53 -145 -183 -156 -305 -13 -140 72 -245 171 -212
160 53 249 456 115 525 -41 22 -91 18 -130 -8z"/>
</g>
</svg>
