<?xml version="1.0" standalone="no"?>
<!DOCTYPE svg PUBLIC "-//W3C//DTD SVG 20010904//EN"
 "http://www.w3.org/TR/2001/REC-SVG-20010904/DTD/svg10.dtd">
<svg version="1.0" xmlns="http://www.w3.org/2000/svg"
 width="1024.000000pt" height="1024.000000pt" viewBox="0 0 1024.000000 1024.000000"
 preserveAspectRatio="xMidYMid meet">

<g transform="translate(0.000000,1024.000000) scale(0.100000,-0.100000)"
fill="#000000" stroke="none">
<path d="M5049 9756 c-3 -3 -84 -10 -180 -16 -96 -6 -210 -15 -254 -20 -44 -6
-120 -15 -170 -20 -49 -4 -115 -14 -145 -20 -30 -6 -73 -13 -95 -16 -22 -3
-49 -9 -60 -14 -20 -8 -54 -16 -125 -26 -19 -3 -44 -9 -55 -14 -21 -9 -58 -18
-113 -27 -18 -3 -35 -9 -38 -14 -3 -5 -16 -9 -29 -9 -13 0 -27 -4 -30 -10 -3
-5 -19 -10 -35 -10 -16 0 -32 -4 -35 -10 -3 -5 -17 -10 -30 -10 -13 0 -27 -4
-30 -10 -3 -5 -15 -10 -26 -10 -10 0 -28 -4 -39 -10 -11 -5 -29 -14 -40 -20
-11 -5 -29 -10 -39 -10 -11 0 -23 -4 -26 -10 -3 -5 -14 -10 -24 -10 -10 0 -31
-6 -47 -14 -29 -14 -89 -40 -134 -58 -14 -6 -33 -14 -42 -19 -10 -5 -25 -9
-33 -9 -8 0 -15 -4 -15 -10 0 -5 -6 -10 -12 -10 -12 0 -298 -139 -308 -150 -3
-3 -23 -14 -45 -26 -52 -27 -89 -48 -95 -54 -10 -10 -65 -41 -82 -47 -10 -3
-18 -9 -18 -14 0 -5 -6 -9 -13 -9 -7 0 -23 -9 -35 -20 -12 -11 -25 -20 -30
-20 -4 0 -17 -8 -28 -17 -10 -10 -48 -38 -84 -62 -36 -25 -67 -48 -70 -51 -3
-3 -21 -17 -40 -30 -19 -13 -37 -27 -40 -30 -3 -3 -21 -17 -40 -31 -19 -15
-46 -37 -60 -49 -14 -12 -41 -34 -60 -49 -19 -14 -46 -37 -60 -51 -14 -14 -45
-43 -70 -64 -138 -120 -351 -340 -440 -456 -19 -24 -45 -54 -57 -67 -12 -12
-34 -39 -50 -60 -15 -21 -38 -48 -50 -61 -13 -13 -23 -27 -23 -32 0 -5 -6 -15
-13 -22 -7 -7 -24 -29 -37 -48 -13 -19 -30 -41 -37 -48 -7 -7 -13 -17 -13 -21
0 -4 -11 -21 -25 -37 -14 -16 -25 -35 -25 -41 0 -7 -4 -13 -10 -13 -5 0 -10
-5 -10 -11 0 -5 -18 -37 -40 -69 -22 -32 -40 -64 -40 -69 0 -6 -3 -11 -8 -11
-4 0 -28 -39 -52 -87 -25 -49 -47 -90 -50 -93 -11 -11 -50 -93 -50 -106 0 -8
-4 -14 -10 -14 -5 0 -10 -9 -10 -20 0 -11 -3 -20 -7 -20 -9 0 -33 -49 -33 -67
0 -7 -4 -13 -10 -13 -5 0 -10 -6 -10 -13 0 -8 -6 -27 -14 -43 -21 -44 -42 -95
-56 -134 -7 -19 -17 -46 -22 -60 -6 -14 -15 -36 -21 -50 -5 -14 -13 -33 -18
-42 -5 -10 -9 -27 -9 -37 0 -11 -5 -23 -10 -26 -6 -3 -10 -17 -10 -30 0 -13
-4 -27 -10 -30 -5 -3 -10 -17 -10 -30 0 -13 -5 -27 -10 -30 -6 -3 -10 -19 -10
-35 0 -16 -5 -32 -10 -35 -6 -3 -10 -19 -10 -35 0 -16 -4 -31 -9 -34 -5 -3
-11 -20 -14 -38 -3 -18 -10 -51 -17 -73 -6 -22 -16 -59 -21 -82 -5 -24 -14
-64 -20 -90 -6 -27 -13 -66 -15 -88 -3 -22 -9 -49 -14 -60 -5 -11 -12 -42 -15
-70 -3 -27 -10 -84 -15 -125 -25 -194 -33 -338 -33 -620 0 -370 21 -625 73
-890 35 -178 40 -202 50 -225 5 -11 11 -36 15 -55 3 -19 8 -50 12 -68 3 -18 9
-35 14 -38 5 -3 9 -18 9 -34 0 -16 5 -32 10 -35 6 -3 10 -17 10 -31 0 -13 4
-32 9 -42 15 -30 28 -66 41 -112 7 -25 19 -60 26 -77 8 -18 21 -50 30 -70 9
-21 20 -46 25 -55 5 -10 9 -25 9 -33 0 -8 4 -23 9 -33 5 -9 18 -37 29 -62 58
-131 225 -454 248 -481 8 -8 14 -18 14 -21 0 -14 151 -251 171 -268 3 -3 20
-27 39 -55 104 -155 274 -359 460 -549 748 -768 1788 -1281 2810 -1385 214
-22 298 -26 575 -25 301 2 492 16 740 55 1201 189 2330 885 3040 1874 471 655
761 1408 849 2205 51 459 41 821 -35 1280 -120 719 -396 1373 -822 1950 -375
508 -938 1002 -1472 1292 -129 70 -436 218 -453 218 -5 0 -22 6 -38 14 -57 27
-100 45 -139 56 -22 7 -48 16 -57 21 -10 5 -25 9 -33 9 -8 0 -23 4 -33 9 -9 5
-28 13 -42 19 -14 5 -38 15 -53 21 -15 6 -39 11 -52 11 -13 0 -27 5 -30 10 -3
6 -17 10 -31 10 -13 0 -32 4 -42 9 -28 14 -87 31 -108 31 -11 0 -24 4 -29 9
-6 5 -28 11 -50 15 -22 3 -65 10 -95 15 -30 6 -71 13 -90 16 -19 4 -44 10 -55
15 -28 12 -101 22 -380 50 -205 21 -588 44 -596 36z m236 -2468 l-137 -445 64
-60 c34 -32 132 -123 215 -202 84 -78 155 -146 158 -151 5 -8 -13 -14 -407
-116 l-267 -69 -26 -55 c-14 -30 -83 -190 -154 -355 l-128 -300 38 -44 c64
-73 64 -121 0 -282 -23 -55 -41 -104 -41 -107 0 -3 31 55 68 129 259 510 519
735 785 679 134 -27 291 -140 343 -245 15 -32 28 -79 31 -115 l6 -61 48 91
c129 239 290 426 424 491 65 32 76 34 170 34 91 0 106 -3 165 -31 100 -47 181
-120 218 -196 17 -34 34 -72 38 -83 4 -14 15 12 34 85 61 230 190 516 322 715
250 376 398 575 490 660 183 169 406 163 502 -14 50 -94 47 -277 -9 -457 -14
-43 -25 -81 -25 -84 0 -3 14 20 31 50 59 108 115 144 225 145 60 0 76 -4 112
-27 51 -34 67 -58 84 -125 l14 -52 23 76 c31 100 169 376 220 441 23 28 54 58
71 67 90 47 240 -18 295 -128 14 -28 25 -68 25 -89 0 -63 -37 -156 -109 -273
-37 -60 -86 -141 -108 -180 -92 -158 -171 -227 -262 -228 -39 -1 -57 5 -85 27
-37 28 -76 90 -77 123 0 10 -10 -10 -23 -44 -60 -162 -149 -243 -266 -243 -85
0 -162 54 -197 137 -15 38 -17 170 -3 208 5 14 6 24 1 21 -4 -3 -16 -27 -26
-53 -10 -26 -46 -106 -80 -176 -51 -102 -59 -127 -44 -122 10 3 28 8 40 11 38
11 114 -17 189 -69 115 -80 141 -137 105 -224 -8 -19 -15 -37 -15 -38 0 -2 55
53 123 122 92 94 151 145 242 206 141 94 266 157 312 157 46 0 101 -53 149
-143 36 -66 39 -78 39 -152 0 -97 -10 -120 -114 -260 -90 -120 -160 -251 -195
-363 -14 -45 -51 -209 -81 -365 -31 -155 -69 -325 -85 -377 -55 -178 -167
-380 -259 -463 -111 -101 -355 -171 -477 -138 -62 17 -132 69 -171 127 l-35
53 -97 -6 c-127 -8 -185 10 -251 76 l-47 47 -44 -38 c-98 -84 -238 -135 -339
-124 -72 8 -149 47 -194 96 -20 22 -40 40 -44 40 -9 0 -76 -69 -225 -232 -95
-105 -199 -182 -294 -218 -80 -31 -237 -39 -315 -16 -73 21 -161 87 -233 175
l-59 70 -34 -52 c-137 -205 -342 -335 -558 -354 -173 -14 -332 93 -436 294
-18 35 -36 63 -40 63 -7 0 -113 -131 -212 -262 -116 -155 -220 -227 -338 -236
-82 -6 -125 13 -215 93 -72 65 -66 68 -144 -63 -114 -189 -199 -286 -294 -333
-42 -20 -64 -24 -145 -24 -84 0 -102 4 -153 29 -113 55 -214 180 -253 311 -22
76 -23 260 -1 360 9 38 14 71 13 72 -1 2 -20 -41 -41 -95 -124 -317 -218 -457
-357 -528 -66 -35 -182 -40 -235 -11 -138 74 -170 255 -86 482 14 39 66 148
114 243 49 95 89 176 89 180 -1 32 -150 -261 -236 -465 -25 -59 -92 -202 -150
-317 -174 -346 -266 -476 -374 -531 -131 -66 -221 -32 -287 110 -50 109 -43
294 19 482 12 35 63 141 114 236 389 716 649 1285 949 2076 53 140 101 263
106 273 57 107 -205 -247 -366 -495 -100 -153 -101 -155 -113 -243 -17 -116
-51 -217 -114 -334 -106 -199 -205 -331 -284 -380 -54 -34 -127 -44 -182 -26
-60 20 -93 53 -129 131 -27 58 -28 66 -27 210 0 127 4 166 26 255 38 151 77
252 177 455 197 398 438 698 937 1160 150 140 180 164 251 200 136 68 333 27
444 -92 156 -166 126 -461 -95 -958 l-74 -165 42 38 c124 114 218 164 311 166
159 2 265 -135 252 -326 l-5 -78 41 29 c134 91 246 120 328 84 65 -29 101 -64
134 -130 27 -51 30 -68 30 -148 0 -172 -78 -332 -440 -900 -113 -178 -210
-405 -229 -535 l-7 -45 32 30 c93 89 169 215 266 445 112 265 207 436 426 765
177 266 185 275 253 275 29 0 65 -5 80 -10 15 -6 28 -9 30 -7 2 2 -10 69 -26
150 -16 81 -38 195 -48 254 l-19 108 -401 29 c-375 28 -401 31 -385 46 10 9
170 129 357 265 l339 249 -7 91 c-4 49 -18 213 -32 364 -14 151 -23 280 -22
287 2 8 103 -56 247 -157 134 -93 248 -168 252 -167 10 3 188 159 488 425 112
101 206 181 209 179 2 -2 -58 -204 -133 -448z"/>
<path d="M5184 7399 c-10 -12 -117 -109 -238 -215 l-218 -193 -47 31 c-25 18
-112 78 -193 134 -146 102 -146 102 -142 71 6 -46 44 -505 44 -538 0 -24 -30
-49 -263 -220 -254 -187 -263 -194 -233 -201 17 -4 146 -14 286 -23 140 -9
262 -18 271 -21 12 -3 20 -26 28 -82 15 -100 71 -403 78 -422 5 -13 6 -13 10
0 19 56 258 597 268 605 7 6 132 42 278 80 147 39 267 72 267 75 0 3 -57 58
-127 122 -71 64 -150 139 -176 166 l-49 50 87 283 c48 156 92 292 97 302 12
24 -5 22 -28 -4z"/>
<path d="M7957 7269 c-117 -27 -231 -157 -539 -614 -247 -367 -328 -552 -433
-990 -105 -437 -188 -652 -343 -886 -135 -205 -272 -337 -409 -393 -76 -31
-112 -33 -141 -6 -79 74 -87 220 -22 430 46 148 54 154 167 125 203 -53 345
34 458 279 77 166 109 314 103 469 -3 79 -9 111 -25 142 -66 125 -244 210
-369 176 -57 -15 -157 -85 -216 -150 -111 -123 -257 -376 -418 -725 -200 -435
-288 -585 -413 -703 -92 -86 -162 -125 -218 -121 -54 4 -74 31 -94 123 -54
256 40 635 214 858 41 54 151 147 172 147 36 0 -47 -196 -121 -285 -23 -27
-51 -67 -61 -88 l-20 -38 22 -31 c28 -39 135 -108 167 -108 76 0 245 287 288
488 18 85 18 203 0 245 -7 18 -44 60 -81 95 -84 76 -146 102 -248 102 -119 -1
-181 -33 -307 -160 -126 -126 -230 -295 -405 -655 -136 -281 -228 -430 -345
-558 -84 -92 -140 -110 -140 -46 0 70 38 167 170 434 135 274 240 515 240 553
0 25 -74 97 -126 123 -24 11 -60 21 -82 22 l-39 2 -135 -202 c-223 -330 -309
-486 -476 -863 -86 -196 -122 -251 -242 -371 -119 -119 -198 -165 -214 -123
-10 27 -7 118 9 207 34 196 105 357 275 627 242 384 333 547 369 659 25 75 28
183 7 232 -8 19 -28 47 -45 63 -74 71 -195 20 -466 -193 -49 -39 -93 -71 -96
-71 -3 0 11 49 32 110 83 241 84 358 3 430 -45 39 -108 41 -180 5 -69 -35
-226 -175 -328 -293 -47 -55 -98 -110 -113 -122 l-28 -22 -3 46 c-5 70 30 180
112 354 193 410 257 611 259 807 1 74 -3 99 -22 143 -28 63 -86 115 -150 136
-182 60 -235 29 -638 -371 -323 -321 -466 -495 -614 -744 -131 -222 -225 -435
-277 -634 -21 -81 -26 -123 -26 -225 -1 -111 2 -131 23 -178 26 -58 44 -72 91
-72 95 0 196 119 333 395 51 103 71 165 87 282 12 78 17 91 96 219 46 74 130
197 186 274 57 76 130 175 162 220 87 119 209 239 284 278 34 18 62 29 62 24
0 -20 -116 -348 -230 -648 -123 -325 -263 -665 -408 -994 -85 -193 -388 -804
-452 -910 -18 -30 -68 -125 -111 -210 -94 -185 -122 -280 -123 -420 -1 -100
12 -154 47 -204 18 -26 24 -28 69 -24 59 6 88 26 148 100 77 95 304 522 395
743 84 204 200 418 328 610 91 136 309 346 333 322 12 -12 -142 -358 -306
-687 -142 -285 -162 -332 -180 -438 -32 -180 64 -284 202 -219 121 56 185 153
317 477 93 227 210 411 309 487 24 18 47 33 52 33 10 0 -6 -73 -75 -325 -68
-252 -79 -313 -73 -439 5 -123 31 -188 105 -267 69 -74 131 -103 218 -104 56
0 78 5 112 24 60 35 155 154 262 330 13 21 41 58 61 80 32 35 44 41 77 41 33
0 50 -10 123 -70 64 -53 93 -71 126 -76 92 -13 183 57 333 256 97 129 217 260
268 291 19 12 36 20 38 18 2 -2 17 -41 34 -87 39 -108 88 -187 154 -250 88
-83 153 -101 274 -77 103 21 227 82 297 146 31 28 83 89 116 134 67 93 111
135 143 135 12 0 37 -19 61 -47 23 -27 75 -83 117 -125 92 -92 146 -114 264
-105 132 10 238 68 360 197 251 267 277 290 331 290 26 0 40 -9 76 -49 77 -87
144 -111 241 -86 83 22 125 46 226 130 50 41 93 75 95 75 3 0 19 -27 37 -61
58 -107 128 -134 280 -104 64 12 94 14 97 7 2 -6 20 -37 41 -69 80 -124 142
-150 280 -118 200 45 287 117 389 320 65 132 100 249 157 542 94 473 133 578
302 800 83 108 107 162 99 217 -8 49 -48 136 -75 161 -19 17 -23 16 -108 -30
-152 -81 -253 -155 -373 -275 -217 -215 -360 -421 -611 -874 -108 -197 -136
-229 -189 -224 -23 3 -25 6 -24 58 3 109 105 324 306 644 120 189 228 395 228
432 0 16 -10 34 -27 48 -158 127 -198 109 -365 -164 -70 -113 -255 -444 -413
-736 -100 -186 -167 -279 -220 -309 -73 -41 -93 8 -50 121 63 166 339 673 589
1079 118 191 252 450 301 580 36 96 82 276 90 356 14 133 -31 236 -113 259
-42 11 -53 11 -105 -1z m-63 -421 c-59 -261 -208 -557 -439 -873 -70 -95 -145
-179 -145 -161 0 19 63 224 96 315 48 130 200 435 272 546 55 83 196 235 220
235 7 0 5 -23 -4 -62z m-1388 -1183 c20 -31 14 -73 -25 -165 -57 -136 -95
-174 -187 -187 l-46 -6 7 34 c11 56 113 253 156 303 46 52 71 57 95 21z m1925
-292 c-29 -287 -122 -584 -207 -664 -21 -20 -26 -21 -34 -9 -5 8 -10 24 -10
35 0 27 -43 117 -63 134 -24 19 -22 36 19 152 38 111 78 194 129 275 39 60
165 207 172 200 3 -3 0 -58 -6 -123z"/>
<path d="M9006 7149 c-44 -52 -175 -312 -211 -421 -28 -86 -32 -162 -11 -213
13 -30 20 -35 47 -35 44 0 117 76 183 190 26 47 70 121 96 165 94 158 112 213
86 263 -20 38 -79 82 -120 89 -29 4 -37 0 -70 -38z"/>
<path d="M8411 6783 c-73 -38 -127 -146 -138 -273 -9 -105 34 -170 112 -170
63 0 131 78 166 191 29 90 23 200 -13 235 -33 33 -84 40 -127 17z"/>
<path d="M6561 4884 c-48 -37 -152 -74 -210 -74 -20 0 -64 6 -99 14 l-64 13
-10 -26 c-51 -133 -64 -322 -22 -338 7 -3 38 6 68 20 72 33 206 163 286 275
66 95 104 152 98 151 -1 0 -23 -16 -47 -35z"/>
<path d="M5166 4843 c-31 -132 -41 -262 -27 -356 7 -48 16 -87 20 -87 4 0 28
14 54 31 82 54 168 159 262 323 26 44 27 48 7 37 -59 -31 -168 2 -254 78 l-46
41 -16 -67z"/>
</g>
</svg>
